<svg version="1.1" id="dripcreative" xmlns="http://www.w3.org/2000/svg" xmlns:xlink="http://www.w3.org/1999/xlink" x="0px"
	 y="0px" viewBox="0 0 422 74" style="enable-background:new 0 0 422 74;" xml:space="preserve">
<style type="text/css">
	.st0{fill:#3582c4;}
	.st1{fill:#121926;}
</style>
<g>
	<path class="st0" d="M20,17.6c4.6,0,8.6,1.4,12.1,4.2V4.7c0-1,0.3-1.9,1-2.6s1.5-1,2.6-1c1,0,1.9,0.3,2.6,1c0.7,0.7,1,1.5,1,2.6
		v32.2c0,5.4-1.9,9.9-5.6,13.6c-3.8,3.8-8.3,5.6-13.6,5.6c-5.3,0-9.9-1.9-13.6-5.6c-3.8-3.8-5.6-8.3-5.6-13.6S2.6,27,6.4,23.2
		C10.2,19.5,14.7,17.6,20,17.6z M32.1,36.8c0-1.7-0.3-3.2-0.9-4.7c-0.6-1.5-1.5-2.7-2.6-3.8c-1.1-1.1-2.4-2-3.8-2.6
		c-1.5-0.6-3-1-4.7-1c-1.7,0-3.3,0.3-4.7,1c-1.5,0.6-2.7,1.5-3.8,2.6c-1.1,1.1-1.9,2.4-2.6,3.8c-0.6,1.5-0.9,3-0.9,4.7
		s0.3,3.2,0.9,4.7c0.6,1.5,1.5,2.7,2.6,3.8c1.1,1.1,2.4,2,3.8,2.6c1.5,0.6,3,1,4.7,1c1.7,0,3.2-0.3,4.7-1c1.5-0.6,2.7-1.5,3.8-2.6
		c1.1-1.1,1.9-2.4,2.6-3.8C31.8,40.1,32.1,38.5,32.1,36.8z"/>
	<path class="st0" d="M51.8,21.2v0.7c1.7-1.4,3.6-2.4,5.6-3.2c2-0.7,4.2-1.1,6.5-1.1c1,0,2.1,0.1,3.3,0.2c1.2,0.1,2.2,0.4,3.2,0.7
		c1,0.4,1.8,0.8,2.4,1.5c0.6,0.6,1,1.4,1,2.4c0,0.5-0.1,1-0.3,1.4S73,24.6,72.6,25c-0.3,0.3-0.7,0.6-1.1,0.8S70.6,26,70.1,26
		c-0.4,0-0.9-0.1-1.5-0.4c-1.4-0.6-3-0.9-4.7-0.9c-1.7,0-3.2,0.3-4.7,0.9c-1.5,0.6-2.7,1.5-3.8,2.6c-1.1,1.1-1.9,2.4-2.6,3.8
		c-0.6,1.5-0.9,3-0.9,4.7v15.7c0,1-0.4,1.8-1,2.5c-0.7,0.7-1.5,1-2.5,1c-1,0-1.9-0.3-2.6-1c-0.7-0.7-1-1.5-1-2.5V21.2
		c0-1,0.3-1.8,1-2.5c0.7-0.7,1.6-1,2.6-1c1,0,1.8,0.3,2.5,1C51.5,19.3,51.8,20.2,51.8,21.2z"/>
	<path class="st0" d="M87.5,10.7c0,1.2-0.4,2.2-1.2,3c-0.8,0.8-1.8,1.2-3,1.2c-1.2,0-2.2-0.4-3-1.2c-0.8-0.8-1.2-1.8-1.2-3
		s0.4-2.2,1.2-3c0.8-0.8,1.8-1.2,3-1.2c1.2,0,2.2,0.4,3,1.2C87.1,8.6,87.5,9.6,87.5,10.7z M79.7,52.5V21.2c0-1,0.3-1.9,1-2.6
		c0.7-0.7,1.5-1,2.5-1s1.8,0.3,2.5,1c0.7,0.7,1.1,1.6,1.1,2.6v31.3c0,1-0.4,1.9-1.1,2.6c-0.7,0.7-1.5,1-2.5,1s-1.8-0.3-2.5-1
		C80,54.4,79.7,53.5,79.7,52.5z"/>
	<path class="st0" d="M114,56.1c-4.6,0-8.6-1.4-12.1-4.2V69c0,1-0.3,1.9-1,2.6c-0.7,0.7-1.6,1-2.6,1c-1,0-1.9-0.3-2.6-1
		c-0.7-0.7-1-1.5-1-2.6V36.8c0-5.3,1.9-9.9,5.6-13.6c3.8-3.8,8.3-5.6,13.6-5.6c5.3,0,9.8,1.9,13.6,5.6c1.9,1.9,3.3,3.9,4.2,6.2
		c0.9,2.3,1.4,4.8,1.4,7.4c0,5.4-1.9,9.9-5.6,13.6c-1.9,1.9-4,3.3-6.3,4.2C119.1,55.6,116.6,56.1,114,56.1z M101.9,36.8
		c0,1.7,0.3,3.2,0.9,4.7c0.6,1.5,1.5,2.7,2.6,3.8c1.1,1.1,2.4,2,3.8,2.6c1.5,0.6,3,1,4.7,1c1.7,0,3.2-0.3,4.7-1
		c1.5-0.6,2.7-1.5,3.8-2.6c1.1-1.1,1.9-2.4,2.6-3.8c0.6-1.5,0.9-3,0.9-4.7s-0.3-3.2-0.9-4.7c-0.6-1.5-1.5-2.7-2.6-3.8
		c-1.1-1.1-2.4-2-3.8-2.6c-1.5-0.6-3-1-4.7-1c-1.7,0-3.3,0.3-4.7,1c-1.5,0.6-2.7,1.5-3.8,2.6c-1.1,1.1-1.9,2.4-2.6,3.8
		C102.3,33.6,101.9,35.2,101.9,36.8z"/>
	<path class="st1" d="M168.7,46.7c0.8,0,1.4,0.3,1.9,0.8c0.5,0.5,0.8,1.2,0.8,1.9s-0.3,1.4-0.9,2c-3.6,3.1-7.7,4.6-12.6,4.6
		c-5.3,0-9.9-1.9-13.6-5.6c-3.8-3.8-5.6-8.3-5.6-13.6s1.9-9.9,5.6-13.6c3.8-3.8,8.3-5.6,13.6-5.6c4.8,0,9,1.5,12.6,4.6
		c0.6,0.6,1,1.3,1,2.1c0,0.8-0.3,1.4-0.8,1.9c-0.5,0.5-1.2,0.8-1.9,0.8c-0.7,0-1.2-0.2-1.8-0.6c-2.6-2.3-5.6-3.4-9-3.4
		c-3.8,0-7.1,1.3-9.7,4c-2.7,2.7-4,5.9-4,9.7c0,3.8,1.3,7.1,4,9.7c2.7,2.7,5.9,4,9.7,4c3.4,0,6.4-1.1,9-3.4
		C167.5,46.9,168,46.7,168.7,46.7z"/>
	<path class="st1" d="M177.8,20.3c0-0.8,0.3-1.4,0.8-1.9c0.5-0.5,1.2-0.8,1.9-0.8c0.8,0,1.4,0.3,1.9,0.8c0.5,0.5,0.8,1.2,0.8,1.9v3
		c3.9-3.9,8.4-5.8,13.8-5.8c2.7,0,5.1,0.5,7.4,1.4c0.4,0.2,0.8,0.4,1.1,0.7c0.5,0.6,0.8,1.2,0.8,2c0,0.8-0.3,1.4-0.8,1.9
		c-0.5,0.5-1.2,0.8-1.9,0.8c-0.4,0-0.8-0.1-1.2-0.3c-1.6-0.7-3.4-1-5.4-1c-3.8,0-7.1,1.3-9.7,4c-2.7,2.7-4,5.9-4,9.7v16.5
		c0,0.8-0.3,1.4-0.8,1.9c-0.5,0.5-1.2,0.8-1.9,0.8c-0.8,0-1.4-0.3-1.9-0.8c-0.5-0.5-0.8-1.2-0.8-1.9V20.3z"/>
	<path class="st1" d="M240.6,46.8c0.8,0,1.4,0.3,1.9,0.8c0.5,0.5,0.8,1.2,0.8,1.9c0,0.8-0.3,1.4-0.8,2c-3.6,3.1-7.7,4.6-12.6,4.6
		c-5.3,0-9.9-1.9-13.6-5.6c-3.8-3.8-5.6-8.3-5.6-13.6s1.9-9.9,5.6-13.6c3.8-3.8,8.3-5.6,13.6-5.6c5.3,0,9.9,1.9,13.6,5.6
		c3.8,3.8,5.6,8.3,5.6,13.6c0,0.8-0.3,1.4-0.8,1.9c-0.5,0.5-1.2,0.8-1.9,0.8h-30c0.5,2.6,1.8,5,3.8,7c2.7,2.7,5.9,4,9.7,4
		c3.4,0,6.4-1.1,8.9-3.3C239.4,46.9,240,46.8,240.6,46.8z M243.5,34.1c-0.5-2.6-1.8-5-3.8-7c-2.7-2.7-5.9-4-9.7-4
		c-3.8,0-7,1.3-9.7,4c-2,2-3.3,4.3-3.8,7H243.5z"/>
	<path class="st1" d="M287.8,50.3c-3.9,3.9-8.4,5.8-13.8,5.8c-5.3,0-9.9-1.9-13.6-5.6c-3.8-3.8-5.6-8.3-5.6-13.6s1.9-9.9,5.6-13.6
		c3.8-3.8,8.3-5.6,13.6-5.6c5.3,0,9.9,1.9,13.6,5.6c3.8,3.8,5.6,8.3,5.6,13.6v16.5c0,0.8-0.3,1.4-0.8,1.9c-0.5,0.5-1.2,0.8-1.9,0.8
		s-1.4-0.3-1.9-0.8c-0.5-0.5-0.8-1.2-0.8-1.9V50.3z M274,23.1c-3.8,0-7,1.3-9.7,4s-4,5.9-4,9.7c0,3.8,1.3,7.1,4,9.7
		c2.7,2.7,5.9,4,9.7,4c3.8,0,7-1.3,9.7-4c2.7-2.7,4-5.9,4-9.7c0-3.8-1.3-7-4-9.7S277.8,23.1,274,23.1z"/>
	<path class="st1" d="M318,50.6c0.8,0,1.4,0.3,1.9,0.8c0.5,0.5,0.8,1.2,0.8,1.9s-0.3,1.4-0.8,1.9c-0.5,0.5-1.2,0.8-1.9,0.8
		c-9.2,0-13.8-4.6-13.8-13.8V23.1h-2.8c-0.8,0-1.4-0.3-1.9-0.8c-0.5-0.5-0.8-1.2-0.8-1.9c0-0.8,0.3-1.4,0.8-1.9
		c0.5-0.5,1.2-0.8,1.9-0.8h2.8V3.8c0-0.8,0.3-1.4,0.8-1.9c0.5-0.5,1.2-0.8,1.9-0.8s1.4,0.3,1.9,0.8c0.5,0.5,0.8,1.2,0.8,1.9v13.8
		h5.5c0.8,0,1.4,0.3,1.9,0.8c0.5,0.5,0.8,1.2,0.8,1.9c0,0.8-0.3,1.4-0.8,1.9c-0.5,0.5-1.2,0.8-1.9,0.8h-5.5v19.3
		C309.8,47.9,312.5,50.6,318,50.6z"/>
	<path class="st1" d="M335.7,9.3c0,0.9-0.3,1.7-1,2.4c-0.7,0.7-1.5,1-2.4,1c-0.9,0-1.7-0.3-2.4-1c-0.7-0.7-1-1.5-1-2.4
		c0-0.9,0.3-1.7,1-2.4c0.7-0.7,1.5-1,2.4-1c0.9,0,1.7,0.3,2.4,1C335.4,7.6,335.7,8.4,335.7,9.3z M329.5,20.3c0-0.8,0.3-1.4,0.8-1.9
		c0.5-0.5,1.2-0.8,1.9-0.8c0.8,0,1.4,0.3,1.9,0.8c0.5,0.5,0.8,1.2,0.8,1.9v33c0,0.8-0.3,1.4-0.8,1.9c-0.5,0.5-1.2,0.8-1.9,0.8
		c-0.8,0-1.4-0.3-1.9-0.8c-0.5-0.5-0.8-1.2-0.8-1.9V20.3z"/>
	<path class="st1" d="M363.6,55.3c-0.5,0.5-1.2,0.8-2,0.8s-1.5-0.3-2-0.8c-0.2-0.1-0.3-0.4-0.4-0.7L344,21.4
		c-0.1-0.3-0.2-0.7-0.2-1.1c0-0.8,0.3-1.4,0.8-1.9c0.5-0.5,1.2-0.8,1.9-0.8c0.8,0,1.4,0.3,2,0.8c0.2,0.2,0.4,0.4,0.5,0.7l12.7,27.6
		l12.7-27.6c0.2-0.3,0.3-0.5,0.6-0.7c0.5-0.5,1.2-0.8,1.9-0.8s1.4,0.3,1.9,0.8c0.5,0.5,0.8,1.2,0.8,1.9c0,0.4-0.1,0.7-0.2,1.1
		L364,54.7C363.9,55,363.8,55.2,363.6,55.3z"/>
	<path class="st1" d="M414.6,46.8c0.8,0,1.4,0.3,1.9,0.8c0.5,0.5,0.8,1.2,0.8,1.9c0,0.8-0.3,1.4-0.8,2c-3.6,3.1-7.7,4.6-12.6,4.6
		c-5.3,0-9.9-1.9-13.6-5.6c-3.8-3.8-5.6-8.3-5.6-13.6s1.9-9.9,5.6-13.6c3.8-3.8,8.3-5.6,13.6-5.6c5.3,0,9.9,1.9,13.6,5.6
		c3.8,3.8,5.6,8.3,5.6,13.6c0,0.8-0.3,1.4-0.8,1.9c-0.5,0.5-1.2,0.8-1.9,0.8h-30c0.5,2.6,1.8,5,3.8,7c2.7,2.7,5.9,4,9.7,4
		c3.4,0,6.4-1.1,8.9-3.3C413.4,46.9,414,46.8,414.6,46.8z M417.5,34.1c-0.5-2.6-1.8-5-3.8-7c-2.7-2.7-5.9-4-9.7-4
		c-3.8,0-7,1.3-9.7,4c-2,2-3.3,4.3-3.8,7H417.5z"/>
</g>
</svg>
